# xmcd CD database file
# Copyright (C) 1993-1996 Ti Kan
#
# Track frame offsets:
# 150
# 17990
# 34722
# 55202
# 67052
# 81702
# 100627
# 114360
# 128327
# 137907
# 150122
# 162107
# 174312
# 206930
#
# Disc length: 2973 seconds
#
# Revision: 0
# Processed by: cddbd v1.4b41PL1 Copyright (c) Steve Scherf et al.
# Submitted via: inCDius 1.1b5
#
DISCID=b50b9b0e
DTITLE=Singers-Songs-Roots-Rock - The Watermelon Files of Texas Music
DYEAR=1900
DGENRE=
TTITLE0=Steve Young: Have a laugh
TTITLE1=Tish Hinojosa: Midnight moonlight
TTITLE2=Darden Smith: Clatter and roll
TTITLE3=Vince Bell and Victoria Williams: Hard road
TTITLE4=Iain Matthews: Girl with the clouds in her eyes
TTITLE5=Timbuk 3: Sample the dog
TTITLE6=Webb Wilder and Beatnecks: How long can she last
TTITLE7=Don Walser: Shotgun boogie
TTITLE8=Maryann Price: Oilwell, Texas
TTITLE9=Warden and Kelly Willis: The only one
TTITLE10=Santiago Jimenez Jr.: Asi lo crees asi que sea
TTITLE11=Austin Lounge Lizards: Old and fat and drunk
TTITLE12=Carla Olsen:Why did you stopJulian
TTITLE13=Julian Dawson: Two shots of jealousy
EXTD=Munich Records 1994\nMSACD 9
EXTT0=
EXTT1=
EXTT2=
EXTT3=
EXTT4=
EXTT5=
EXTT6=
EXTT7=
EXTT8=
EXTT9=
EXTT10=
EXTT11=
EXTT12=
EXTT13=
PLAYORDER=
